<?xml version="1.0" encoding="UTF-8" standalone="no"?>
<svg
   width="16"
   height="16"
   fill="currentColor"
   class="bi bi-apple"
   viewBox="0 0 16 16"
   version="1.1"
   id="svg6"
   sodipodi:docname="check.svg"
   inkscape:version="1.2.2 (732a01da63, 2022-12-09)"
   xmlns:inkscape="http://www.inkscape.org/namespaces/inkscape"
   xmlns:sodipodi="http://sodipodi.sourceforge.net/DTD/sodipodi-0.dtd"
   xmlns:xlink="http://www.w3.org/1999/xlink"
   xmlns="http://www.w3.org/2000/svg"
   xmlns:svg="http://www.w3.org/2000/svg">
  <defs
     id="defs10">
    <linearGradient
       inkscape:collect="always"
       id="linearGradient2594">
      <stop
         style="stop-color:#0b2413;stop-opacity:1;"
         offset="0"
         id="stop2590" />
      <stop
         style="stop-color:#6a4327;stop-opacity:1;"
         offset="1"
         id="stop2592" />
    </linearGradient>
    <linearGradient
       inkscape:collect="always"
       xlink:href="#linearGradient2594"
       id="linearGradient2598"
       x1="4.9257812"
       y1="8.1496382"
       x2="11.873047"
       y2="8.1496382"
       gradientUnits="userSpaceOnUse"
       gradientTransform="matrix(-1,0,0,1,16.798828,0)" />
  </defs>
  <sodipodi:namedview
     id="namedview8"
     pagecolor="#505050"
     bordercolor="#eeeeee"
     borderopacity="1"
     inkscape:showpageshadow="0"
     inkscape:pageopacity="0"
     inkscape:pagecheckerboard="0"
     inkscape:deskcolor="#505050"
     showgrid="false"
     inkscape:zoom="32"
     inkscape:cx="-4.84375"
     inkscape:cy="6.96875"
     inkscape:window-width="1920"
     inkscape:window-height="1017"
     inkscape:window-x="1912"
     inkscape:window-y="162"
     inkscape:window-maximized="1"
     inkscape:current-layer="svg6" />
  <path
     id="path2"
     style="fill:url(#linearGradient2598);fill-opacity:1"
     d="M 6.1875002,0.30078125 C 6.7034442,0.29858032 7.2751598,0.4565661 7.9414063,1.1796875 8.9848754,2.3112543 8.5774067,4.0715165 8.5371094,4.1777344 8.5615051,4.0838153 8.5670066,3.5710531 6.3457032,2.4375 4.8764052,1.6877038 7.3028201,1.5001093 5.3105472,0.390625 c 0.277978,-0.0285868 0.567384,-0.0885232 0.876953,-0.0898438 z M 5.9140622,3.8515625 c 0.203625,0.003 0.489505,0.033172 0.875,0.1386719 0.5079995,0.138999 1.4623456,0.6460625 1.7773441,0.6640625 0.3159985,0.018 1.4460367,-0.5796568 2.4570317,-0.7226563 0.216114,-0.041753 0.436214,-0.038605 0.652343,-0.011719 A 5.09375,7.46875 0 0 0 9.7363282,9.78125 5.09375,7.46875 0 0 0 11.873047,15.847656 c -0.403252,0.169367 -1.13013,0.241656 -1.660156,-0.0293 -0.5019978,-0.307995 -1.3119237,-0.657531 -1.6699222,-0.644531 -0.356998,0.013 -1.1559588,0.327891 -1.8769526,0.712891 -0.571,0.197 -1.111349,0.114531 -1.652344,-0.105469 -0.028653,-0.0117 -0.057895,-0.02581 -0.087891,-0.04102 A 5.09375,7.46875 0 0 0 7.1113282,9.625 5.09375,7.46875 0 0 0 5.2714842,3.8964844 c 0.087665,-0.010803 0.17548,-0.019038 0.263672,-0.023437 0.054,-0.0015 0.175286,-0.024484 0.378906,-0.021484 z" />
</svg>
