<?xml version="1.0" encoding="UTF-8" standalone="no"?>
<!-- Created with Inkscape (http://www.inkscape.org/) -->

<svg
   width="64.0px"
   height="64.0px"
   viewBox="0 0 64.0 64.0"
   version="1.1"
   id="SVGRoot"
   sodipodi:docname="gilbert.svg"
   xml:space="preserve"
   inkscape:export-filename="logo.png"
   inkscape:export-xdpi="96"
   inkscape:export-ydpi="96"
   inkscape:version="1.2.2 (732a01da63, 2022-12-09)"
   xmlns:inkscape="http://www.inkscape.org/namespaces/inkscape"
   xmlns:sodipodi="http://sodipodi.sourceforge.net/DTD/sodipodi-0.dtd"
   xmlns="http://www.w3.org/2000/svg"
   xmlns:svg="http://www.w3.org/2000/svg"><sodipodi:namedview
     id="namedview18148"
     pagecolor="#505050"
     bordercolor="#eeeeee"
     borderopacity="1"
     inkscape:showpageshadow="0"
     inkscape:pageopacity="0"
     inkscape:pagecheckerboard="0"
     inkscape:deskcolor="#505050"
     inkscape:document-units="px"
     showgrid="true"
     inkscape:zoom="11.930303"
     inkscape:cx="24.098298"
     inkscape:cy="30.09144"
     inkscape:window-width="1920"
     inkscape:window-height="1017"
     inkscape:window-x="-8"
     inkscape:window-y="-8"
     inkscape:window-maximized="1"
     inkscape:current-layer="layer1"><inkscape:grid
       type="xygrid"
       id="grid18271" /></sodipodi:namedview><defs
     id="defs18143" /><g
     inkscape:label="Layer 1"
     inkscape:groupmode="layer"
     id="layer1"><path
       style="fill:#344b1b;stroke-width:0.120768;fill-opacity:1"
       d="m 36.477661,58.097069 c -1.667289,-0.10311 -2.522765,-0.244396 -4.358358,-0.719804 -3.060012,-0.792523 -5.461445,-2.163476 -6.991587,-3.991422 l -0.557949,-0.66654 -0.07517,0.387261 c -0.123619,0.636845 -0.616029,1.548498 -1.16407,2.155174 -0.570216,0.631224 -2.01703,1.525659 -2.467864,1.525659 -0.159152,0 -0.779792,0.10781 -1.3792,0.239577 -3.50881,0.771341 -6.623414,0.166496 -9.087811,-1.764821 C 9.4706349,54.53723 8.2348851,52.79834 7.9254943,51.786265 l -0.08265,-0.270365 0.4612379,0.267642 c 0.3902303,0.226438 0.6305712,0.266168 1.5611627,0.258067 1.1718871,-0.0102 1.7320831,-0.173843 2.4700551,-0.721547 1.162721,-0.862939 1.242358,-2.664777 0.213588,-4.832568 -0.891111,-1.877722 -1.089923,-2.89246 -1.09113,-5.569134 -0.0012,-2.553794 0.05876,-2.897338 0.848935,-4.86836 0.622681,-1.553216 1.174911,-2.540966 2.110368,-3.774724 0.940374,-1.240243 1.786542,-2.003737 3.328211,-3.003032 1.578622,-1.023246 2.622863,-1.381665 4.071097,-1.397336 0.778551,-0.0084 1.009543,-0.04783 0.964431,-0.164516 -0.03263,-0.08439 -0.22316,-0.677234 -0.423408,-1.317429 -0.794356,-2.53956 -1.223759,-5.235098 -1.223759,-7.682032 0,-1.866426 0.343497,-3.393487 1.093194,-4.859948 0.269456,-0.527074 0.48992,-1.034081 0.48992,-1.126681 0,-0.0926 -0.627056,-0.793148 -1.393458,-1.556774 C 20.193434,10.041764 19.880595,9.6523261 19.669551,9.1088744 19.449479,8.542171 19.429507,8.3647201 19.54027,7.9601722 c 0.07205,-0.2631531 0.237501,-0.5732506 0.36767,-0.6891057 0.295005,-0.2625648 0.949884,-0.2711803 1.4457,-0.019019 0.466201,0.2370995 0.510661,0.2376683 0.510661,0.00653 0,-0.1018014 0.13451,-0.3173808 0.29891,-0.4790653 0.67266,-0.661549 1.837937,-0.1500625 1.976706,0.8676552 0.0552,0.4048254 0.0061,0.6076898 -0.251545,1.040129 -0.340426,0.5712945 -1.049847,1.1727012 -1.049847,0.8899986 0,-0.087035 0.1918,-0.4235612 0.426223,-0.7478349 0.523536,-0.7241999 0.563975,-1.2612019 0.127313,-1.6906495 -0.573044,-0.5635778 -1.113072,-0.2269611 -1.250316,0.779362 -0.0756,0.5543798 -0.282383,0.6227065 -0.52656,0.1739947 C 21.403569,7.7032914 20.828217,7.402913 20.466154,7.492284 c -0.339377,0.083771 -0.606293,0.6738071 -0.497558,1.099885 0.172362,0.6754042 1.717512,1.999552 3.189756,2.733527 l 0.593446,0.295858 1.156923,-1.112245 c 3.347911,-3.2186257 6.802813,-4.6922336 11.56894,-4.934462 2.422283,-0.1231075 5.946549,0.2696517 7.793792,0.8685731 1.107309,0.3590167 3.069388,1.2669092 4.417561,2.0440925 1.657081,0.9552597 3.543619,2.8897824 4.354644,4.4654084 0.836264,1.624656 1.25799,4.679358 1.264905,9.162123 0.0039,2.541802 -0.03725,3.256526 -0.272505,4.73077 -0.242493,1.519601 -0.344754,1.871308 -0.818327,2.814509 -0.29766,0.592843 -0.772751,1.342579 -1.055755,1.666081 -0.626006,0.715586 -1.698537,1.416384 -2.491956,1.628259 -0.323585,0.08641 -0.608681,0.173036 -0.633549,0.1925 -0.02487,0.01947 0.202841,0.536872 0.506019,1.149792 1.751072,3.540077 2.487224,6.393286 2.609599,10.114403 0.143575,4.365764 -0.774733,7.871754 -2.571893,9.819192 -2.177991,2.36011 -5.169039,3.616416 -9.083861,3.815419 -0.703268,0.03575 -1.58007,0.08136 -1.948448,0.101352 -0.368378,0.02 -1.29998,-0.0026 -2.070226,-0.05025 z m 5.784455,-1.357917 c 1.551304,-0.261086 2.291717,-0.496175 3.439405,-1.092048 2.482144,-1.288713 3.770971,-2.720155 4.52676,-5.027672 0.556502,-1.69907 0.790313,-3.413525 0.783992,-5.748784 -0.0066,-2.442843 -0.188737,-3.742528 -0.619607,-4.421631 -0.533246,-0.840458 -2.833207,-3.407142 -2.833207,-3.161767 0,0.03781 0.08381,0.266011 0.186234,0.507107 0.102427,0.241096 0.219556,0.937274 0.260285,1.547063 0.06394,0.95732 0.04007,1.18425 -0.17478,1.661939 -0.265611,0.59054 -0.607514,0.851476 -1.036213,0.790827 -0.162639,-0.02301 -0.601696,-0.452195 -1.138039,-1.112451 -0.821287,-1.011033 -0.901158,-1.075506 -1.342479,-1.083688 -0.25808,-0.0048 -0.540128,-0.03304 -0.626771,-0.06279 -0.100191,-0.0344 -0.239155,0.169762 -0.381756,0.560865 -0.824084,2.260159 -2.18607,3.674931 -2.838096,2.948091 -0.27545,-0.307055 -0.98706,-1.752304 -1.371062,-2.784567 -0.621868,-1.67169 -0.422419,-2.671687 0.636043,-3.188983 0.65102,-0.31817 1.787507,-0.30058 2.368689,0.03666 0.416422,0.241635 0.474939,0.24656 0.963326,0.08108 0.316027,-0.107081 0.696304,-0.146887 0.969542,-0.101486 0.334601,0.0556 0.639457,-0.0039 1.192097,-0.232664 0.40839,-0.169049 0.853778,-0.307362 0.989753,-0.307362 0.502155,0 0.216027,-0.234004 -1.000999,-0.818645 -0.825839,-0.396721 -1.763329,-0.725926 -2.77045,-0.972862 -2.44074,-0.598442 -3.693343,-1.038814 -6.059794,-2.130412 -1.223082,-0.564185 -2.202283,-1.046939 -2.176001,-1.072786 0.02628,-0.02585 0.752985,0.112178 1.614897,0.306724 3.043849,0.687041 3.826943,0.781461 6.49912,0.783618 1.660687,0.0013 3.07772,-0.06876 4.232723,-0.209399 2.8942,-0.352407 3.680191,-0.644905 4.684217,-1.743174 1.421858,-1.555325 1.895869,-3.381271 2.008382,-7.736541 0.110393,-4.273163 -0.410161,-8.301411 -1.259242,-9.744498 -0.422764,-0.718526 -1.346,-1.859593 -2.014576,-2.4899 C 48.829684,9.6397159 45.64583,7.968671 43.660333,7.4050206 42.036103,6.9439278 39.854347,6.6926796 37.512774,6.6970759 c -4.659739,0.00875 -7.624037,1.0251528 -10.962322,3.7587831 -2.660594,2.178688 -3.980401,4.361852 -4.325782,7.155504 -0.204647,1.655304 0.13905,4.738029 0.815913,7.318193 0.976804,3.723528 3.30656,9.734491 3.988749,10.291305 0.242768,0.198151 0.249093,0.474088 0.01291,0.563222 -0.232585,0.08778 -1.175318,-0.594315 -1.98471,-1.43599 -0.348299,-0.362191 -1.206355,-1.52074 -1.90679,-2.574551 -1.043277,-1.569621 -1.37019,-1.971739 -1.808235,-2.22421 -1.212993,-0.699118 -2.508813,-0.175652 -4.700887,1.898993 -2.050001,1.940184 -2.869838,3.172002 -3.614053,5.430167 -0.978515,2.969104 -0.886706,5.84861 0.28366,8.89673 1.048728,2.731325 1.110263,3.97359 0.260853,5.266083 -0.410133,0.624075 -0.590564,0.78067 -1.23903,1.075355 -1.062347,0.482766 -2.11612,0.676194 -2.8203785,0.517699 -0.3062618,-0.06893 -0.5568395,-0.08146 -0.5568395,-0.02786 0,0.0536 0.4247008,0.523783 0.9437795,1.044847 1.1663835,1.170844 1.7443085,1.416551 3.5855555,1.524409 1.050155,0.06152 1.414213,0.03242 2.229344,-0.178173 4.119946,-1.064411 5.967702,-3.743579 5.745301,-8.33044 -0.04931,-1.017044 -0.195949,-1.979893 -0.50159,-3.293574 -0.237548,-1.021008 -0.429521,-1.93722 -0.426606,-2.036027 0.0029,-0.09881 0.214724,0.494036 0.470688,1.317429 1.481641,4.766206 3.007951,7.946179 4.784253,9.967704 1.931048,2.197635 5.089174,3.648954 9.202344,4.228946 1.516605,0.213853 5.720542,0.148846 7.273214,-0.112469 z m 1.004669,-27.627368 c -0.217826,-0.124776 -0.285644,-0.650932 -0.117436,-0.911103 0.101562,-0.157086 0.67382,-0.396733 0.947365,-0.396733 0.232106,0 0.661851,0.431243 0.661851,0.664158 0,0.101801 -0.13451,0.317381 -0.29891,0.479065 -0.314673,0.309476 -0.818583,0.379014 -1.19287,0.164613 z M 38.29304,26.806955 c -0.702446,-0.364364 -1.084711,-0.924351 -1.084711,-1.589016 0,-0.704837 0.410007,-1.179764 1.004195,-1.163199 0.559794,0.01561 0.944253,0.227218 0.944253,0.51973 0,0.277231 -0.187021,0.313432 -0.287595,0.05567 -0.108892,-0.279084 -0.537803,-0.211821 -0.758135,0.118893 -0.418786,0.62859 0.236702,1.376805 1.206993,1.377738 0.396783,3.6e-4 0.568002,-0.09498 1.156891,-0.644322 0.922625,-0.860671 1.564577,-1.271491 1.986846,-1.271491 0.648906,0 1.070905,0.750102 0.68323,1.21444 -0.152471,0.182622 -1.636312,1.100854 -2.368624,1.465754 -0.601055,0.299497 -1.823535,0.258049 -2.483343,-0.0842 z m 7.561527,-0.859385 c -0.400703,-0.362293 -0.7819,-0.658715 -0.847104,-0.658715 -0.0652,0 -0.177207,-0.10779 -0.248898,-0.239533 -0.209001,-0.384071 0.04487,-0.718598 0.545344,-0.718598 0.334151,0 0.555931,0.128324 1.138439,0.658715 0.397893,0.362293 0.784617,0.658715 0.859387,0.658715 0.223904,0 0.158941,-0.693999 -0.07717,-0.824359 -0.19834,-0.109507 -0.198834,-0.123074 -0.0071,-0.195729 0.375447,-0.142283 0.64383,-0.0032 0.869243,0.450485 0.187728,0.377834 0.200568,0.514646 0.08158,0.869226 -0.168912,0.503354 -0.425493,0.658507 -1.088985,0.658507 -0.43193,0 -0.590509,-0.08529 -1.224728,-0.658714 z M 32.868871,22.064913 c -0.90081,-0.540213 -1.504319,-1.81673 -1.590047,-3.363206 -0.04968,-0.8962 -0.02252,-1.082387 0.226976,-1.555995 0.435461,-0.826617 0.917477,-1.080307 2.036753,-1.071962 1.079645,0.008 1.839161,0.12469 1.874828,0.287922 0.01862,0.08523 -0.57869,0.483657 -0.725084,0.483657 -0.01077,0 0.118257,0.403676 0.28673,0.89706 0.555754,1.627562 0.253866,3.998068 -0.563983,4.428537 -0.371836,0.195713 -1.12969,0.143752 -1.546173,-0.106013 z m 1.293721,-2.223901 c 0.184731,-0.218909 0.07682,-0.540473 -0.18138,-0.540473 -0.22345,0 -0.360236,0.283096 -0.260406,0.538948 0.08905,0.228243 0.249998,0.228798 0.441786,0.0015 z m -0.736504,-0.952197 c 0.33317,-0.348786 0.484202,-1.287692 0.251495,-1.563454 -0.156163,-0.185057 -0.678821,-0.238931 -1.030473,-0.106219 -0.250475,0.09453 -0.553457,0.664565 -0.553457,1.041284 0,0.395278 0.444525,0.920347 0.779169,0.920347 0.150907,0 0.399877,-0.131382 0.553266,-0.291958 z m 15.686455,2.13051 c -0.257237,-0.180003 -0.58587,-0.57876 -0.759666,-0.921764 -0.259639,-0.51242 -0.306202,-0.769719 -0.305626,-1.688843 3.65e-4,-0.596377 0.05706,-1.283977 0.125972,-1.527999 0.230916,-0.817697 0.989954,-1.153291 2.25649,-0.997662 0.745482,0.0916 0.816998,0.261296 0.221145,0.524734 l -0.364818,0.161293 0.359621,0.736954 c 0.259143,0.531049 0.375898,0.976873 0.417878,1.595644 0.07483,1.102949 -0.02887,1.621439 -0.414411,2.072059 -0.398716,0.466018 -0.913914,0.481302 -1.536585,0.04558 z m 1.190812,-2.209907 c 0.04466,-0.138374 0.02056,-0.311222 -0.05355,-0.384109 -0.182162,-0.179152 -0.558779,0.188281 -0.457925,0.446761 0.105729,0.270973 0.416079,0.232956 0.511478,-0.06265 z m -0.689304,-0.747899 c 0.225322,-0.267012 0.304606,-0.898295 0.137663,-1.096126 -0.35188,-0.416985 -1.096253,-0.08074 -1.096253,0.495196 0,0.654383 0.597433,1.028908 0.95859,0.60093 z m -8.154302,24.287847 c 0.480257,-0.537946 1.296324,-2.125146 1.483827,-2.885948 0.07877,-0.319598 0.188238,-0.630002 0.243271,-0.689788 0.139599,-0.151655 0.502395,0.166991 0.422695,0.371258 -0.03944,0.101082 0.06245,0.211618 0.264839,0.287293 0.267237,0.09992 0.357887,0.08407 0.483237,-0.08452 0.247137,-0.332398 0.320555,-0.976165 0.155909,-1.367091 -0.181934,-0.431971 -0.581091,-0.557098 -1.197628,-0.37543 -0.346876,0.102209 -0.557798,0.09378 -0.946224,-0.03784 -0.95591,-0.323897 -1.664444,-0.350918 -2.271918,-0.08664 -1.18163,0.514056 -1.233714,1.364751 -0.2124,3.469209 0.691615,1.425101 0.930023,1.824875 1.088282,1.824875 0.0585,0 0.277245,-0.191418 0.48611,-0.425372 z m 0.04284,-2.868202 c 0.574175,-0.888397 0.527534,-1.368965 -0.09399,-0.968455 -0.341917,0.220332 -0.425153,0.234618 -0.425153,0.07297 0,-0.06435 0.134317,-0.20356 0.298483,-0.309348 0.329614,-0.212403 0.734991,-0.146182 0.845948,0.138191 0.101472,0.260066 -0.203709,0.896359 -0.597753,1.246293 l -0.337157,0.299416 z m 1.518102,-1.090373 c -0.04884,-0.04803 -0.0888,-0.169968 -0.0888,-0.270971 0,-0.134808 0.03603,-0.148211 0.135478,-0.0504 0.07451,0.07328 0.114471,0.195219 0.0888,0.270972 -0.02568,0.07575 -0.08664,0.09843 -0.135478,0.0504 z m 4.443036,2.467686 c 0.398449,-0.707624 0.163519,-2.624131 -0.427381,-3.486483 -0.347996,-0.507861 -0.533203,-0.540987 -1.500849,-0.268443 -0.616232,0.173565 -0.761238,0.257812 -0.689276,0.400463 0.05012,0.09936 0.09616,0.511381 0.102292,0.915602 0.01045,0.687736 0.04612,0.776212 0.555347,1.377313 0.299304,0.353301 0.697632,0.847553 0.885177,1.098336 0.419831,0.561398 0.744114,0.550296 1.07469,-0.03679 z m -1.702283,-1.969771 c -0.379573,-0.344467 -0.432659,-0.448562 -0.320664,-0.628773 0.07382,-0.118781 0.265619,-0.231573 0.426223,-0.250649 l 0.292008,-0.03469 -0.304445,0.237517 -0.304445,0.237516 0.419668,0.425942 c 0.537194,0.545226 0.388317,0.554611 -0.208345,0.01313 z"
       id="path18653" /><path
       style="fill:#d5f383;stroke-width:0.0419101;paint-order:stroke markers fill;fill-opacity:1"
       d="m 35.665481,56.869713 c -2.060243,-0.159652 -4.69332,-0.880133 -6.496063,-1.777499 -3.571979,-1.778053 -5.629624,-4.853003 -7.923573,-11.841007 -0.548275,-1.6702 -0.751814,-2.186335 -0.751814,-1.906454 0,0.05327 0.168314,0.881575 0.374031,1.840685 0.484612,2.259397 0.579972,3.106406 0.525523,4.667835 -0.03392,0.972635 -0.09259,1.450904 -0.25363,2.06749 -0.367079,1.405453 -1.098225,2.603196 -2.091446,3.426148 -0.681667,0.564808 -2.149346,1.282612 -3.206497,1.568215 -0.72152,0.194929 -0.985651,0.224807 -1.897419,0.21464 -1.143799,-0.01275 -2.070001,-0.165968 -2.618685,-0.433186 -0.471317,-0.229538 -1.250314,-0.887453 -1.8471759,-1.56006 l -0.4958679,-0.558798 0.3701376,0.06579 c 0.9428052,0.167581 1.9485122,-0.01097 3.0682432,-0.544736 0.761266,-0.362886 1.029671,-0.65006 1.465803,-1.568299 0.513198,-1.080496 0.414711,-2.037689 -0.472269,-4.589992 -0.617258,-1.776172 -0.848323,-2.754937 -0.965244,-4.088674 -0.240743,-2.746172 0.647411,-6.030981 2.203389,-8.149163 0.636359,-0.866289 2.495082,-2.721728 3.386739,-3.380757 1.025276,-0.757788 1.531093,-0.979116 2.244818,-0.982253 1.00344,-0.0044 1.395638,0.321984 2.665939,2.218654 1.504339,2.246107 2.40081,3.285555 3.433309,3.980881 0.464621,0.312894 0.637734,0.354781 0.799151,0.193364 0.154204,-0.154204 0.122375,-0.28776 -0.140132,-0.588016 -0.470769,-0.538467 -1.352371,-2.507723 -2.370117,-5.29419 C 23.142439,25.66085 22.496342,22.986286 22.260404,19.864744 21.932252,15.5232 23.7308,12.32437 28.197055,9.3060394 31.061704,7.3700867 33.958774,6.6504575 38.385222,6.7753089 c 3.713473,0.1047414 5.71463,0.5879365 8.563539,2.0677334 2.210471,1.1481751 3.246602,1.9790237 4.390246,3.5204317 0.82827,1.116346 1.145541,1.936001 1.460023,3.771907 0.292685,1.708652 0.342949,2.56784 0.340801,5.825502 -0.0024,3.580703 -0.08763,4.60128 -0.504641,6.040314 -0.448333,1.547103 -1.46671,2.971538 -2.529399,3.537945 -1.296358,0.690951 -3.841934,1.025912 -7.776606,1.023286 -2.683763,-0.0018 -3.261356,-0.06167 -5.909322,-0.612635 -2.791289,-0.580785 -2.785669,-0.582028 -1.068707,0.236347 2.770766,1.32066 4.175316,1.850971 6.558928,2.47643 1.690382,0.443556 2.552707,0.74772 3.576826,1.261638 0.825808,0.414404 1.042171,0.579474 0.759532,0.579474 -0.08685,0 -0.54554,0.134685 -1.019306,0.299299 -0.67889,0.235888 -0.931473,0.287459 -1.192168,0.243415 -0.209082,-0.03532 -0.544383,-0.0035 -0.911377,0.0864 -0.57767,0.141566 -0.582619,0.141293 -0.980873,-0.05396 -0.466422,-0.228679 -1.53644,-0.312803 -2.088364,-0.164185 -0.474449,0.127755 -0.978664,0.516333 -1.167139,0.899463 -0.250034,0.50827 -0.207549,1.323855 0.118939,2.28331 0.351875,1.034054 1.24679,2.830435 1.515264,3.041617 0.715098,0.562497 1.97094,-0.805749 2.888499,-3.147032 l 0.15871,-0.404973 0.542133,0.03452 c 0.606808,0.03864 0.416026,-0.115718 2.000504,1.618549 0.56872,0.622484 0.610144,0.650695 0.877079,0.597308 0.37236,-0.07447 0.694162,-0.396868 0.920366,-0.922067 0.168388,-0.390956 0.180536,-0.518136 0.133181,-1.394133 -0.02866,-0.530162 -0.110221,-1.186184 -0.181248,-1.457826 -0.07103,-0.271642 -0.114528,-0.508506 -0.09667,-0.526366 0.106061,-0.10606 2.360623,2.514696 2.660839,3.093022 0.642184,1.237081 0.741505,5.536581 0.192219,8.320939 -0.667135,3.381741 -2.191862,5.335123 -5.332409,6.831536 -1.419401,0.676319 -2.695485,0.95185 -5.03646,1.087467 -1.605138,0.09299 -3.380584,0.09289 -4.582681,-2.51e-4 z m 8.496366,-27.690137 c 0.311278,-0.130061 0.640033,-0.502494 0.640033,-0.725068 0,-0.08111 -0.109431,-0.264619 -0.24318,-0.407797 -0.295952,-0.316818 -0.578602,-0.33523 -1.101137,-0.07173 -0.318053,0.160385 -0.378055,0.231079 -0.401128,0.472609 -0.0418,0.43756 0.046,0.657546 0.299377,0.750079 0.32387,0.11828 0.488491,0.114585 0.806035,-0.01809 z m -3.626348,-2.160309 c 0.390917,-0.132478 1.807216,-0.942294 2.306278,-1.318691 0.362819,-0.273642 0.412373,-0.349201 0.43528,-0.663718 0.02188,-0.300472 -0.01249,-0.393263 -0.224057,-0.604831 -0.492378,-0.492378 -1.176719,-0.253953 -2.400219,0.836237 -0.864984,0.770739 -1.17007,0.905525 -1.716562,0.75837 -0.456147,-0.122828 -0.923773,-0.566276 -0.923773,-0.876011 0,-0.258826 0.338618,-0.633224 0.572707,-0.633224 0.08868,0 0.218809,0.08487 0.289188,0.188595 0.156355,0.230443 0.341069,0.106434 0.297729,-0.199882 -0.06469,-0.457209 -1.171381,-0.647333 -1.591143,-0.273351 -0.721542,0.642852 -0.419344,2.013497 0.557249,2.527444 0.651686,0.342959 1.787558,0.465705 2.397323,0.259062 z m 7.276263,-0.528141 c 0.826078,-0.427182 0.393442,-2.127012 -0.491871,-1.932565 -0.301404,0.0662 -0.304508,0.07884 -0.08723,0.355067 0.171946,0.218594 0.223627,0.565117 0.09604,0.643968 -0.03938,0.02434 -0.38828,-0.219352 -0.775336,-0.541532 -0.804097,-0.669319 -1.185349,-0.831122 -1.544003,-0.655274 -0.128665,0.06308 -0.272128,0.176247 -0.318808,0.251473 -0.114876,0.185129 0.06587,0.611821 0.305579,0.721382 0.100612,0.04599 0.371526,0.253196 0.602031,0.460468 0.747772,0.672398 1.020361,0.81879 1.524623,0.81879 0.249412,0 0.559448,-0.0548 0.688968,-0.121777 z M 34.55834,22.113673 c 0.521848,-0.386446 0.851548,-1.914313 0.691773,-3.205754 -0.04892,-0.395419 -0.180926,-1.001836 -0.293345,-1.347594 -0.181865,-0.559344 -0.190028,-0.637892 -0.07404,-0.712471 0.561174,-0.360839 0.667234,-0.567295 0.342701,-0.667096 -0.103728,-0.0319 -0.660084,-0.07836 -1.236348,-0.103243 -1.604506,-0.06929 -2.025849,0.112101 -2.509741,1.080456 -0.21517,0.430594 -0.256324,0.61055 -0.256324,1.12084 0,1.534827 0.562094,3.009388 1.397723,3.666694 0.529414,0.416437 1.48979,0.49979 1.937604,0.168168 z m 15.944133,-0.949666 c 0.429899,-0.306115 0.586182,-0.778586 0.58387,-1.765147 -0.0024,-1.035888 -0.07838,-1.409309 -0.450465,-2.214633 l -0.278424,-0.602612 0.344515,-0.160251 c 0.505647,-0.235203 0.494627,-0.416525 -0.03219,-0.529506 -1.281702,-0.274877 -2.288286,0.100444 -2.528251,0.942698 -0.05462,0.191718 -0.102232,0.876645 -0.105798,1.522061 -0.0062,1.120027 0.004,1.194482 0.224624,1.634493 0.271597,0.541773 0.523894,0.842372 0.949338,1.131086 0.392587,0.266417 0.951942,0.284508 1.292777,0.04181 z"
       id="path18776" /><path
       style="fill:#f26356;stroke-width:0.0419101;paint-order:stroke markers fill;fill-opacity:1"
       d="m 40.660382,42.349717 c -0.448578,-0.765441 -1.234766,-2.513995 -1.361797,-3.028761 -0.08117,-0.328909 -0.111493,-0.659781 -0.07722,-0.842483 0.113178,-0.603292 0.942841,-1.136588 1.768219,-1.136588 0.191868,0 0.647207,0.07794 1.011865,0.173201 0.524832,0.137104 0.798345,0.162113 1.312344,0.119994 0.781766,-0.06406 0.948931,-0.01966 1.111813,0.295324 0.23118,0.447052 0.07584,1.350723 -0.25394,1.477272 -0.228786,0.08779 -0.543271,-0.110604 -0.543271,-0.342732 0,-0.126441 -0.06977,-0.24574 -0.177419,-0.30335 -0.241388,-0.129187 -0.355741,0.0048 -0.531317,0.622499 -0.378185,1.330529 -1.570394,3.322283 -1.988626,3.322283 -0.0339,0 -0.155694,-0.160497 -0.270653,-0.356659 z m 0.930853,-2.681823 c 0.326755,-0.343856 0.630141,-0.942799 0.596251,-1.177116 -0.03392,-0.234489 -0.397841,-0.436036 -0.660401,-0.365739 -0.325141,0.08705 -0.61417,0.350452 -0.554676,0.505492 0.04707,0.122664 0.09102,0.117865 0.430345,-0.04699 0.207857,-0.100984 0.402139,-0.159391 0.431737,-0.129793 0.09001,0.09001 -0.02822,0.413611 -0.340149,0.930935 -0.163201,0.270667 -0.29673,0.506411 -0.29673,0.523876 0,0.09985 0.16717,-0.0024 0.393623,-0.240661 z m 1.618062,-1.406618 c 0,-0.09365 -0.05821,-0.192607 -0.129346,-0.219906 -0.175129,-0.0672 -0.232338,0.0073 -0.16603,0.21622 0.07104,0.223816 0.295376,0.226616 0.295376,0.0037 z"
       id="path18778" /><path
       style="fill:#f26356;stroke-width:0.0419101;paint-order:stroke markers fill;fill-opacity:1"
       d="M 46.549001,40.967107 C 46.38478,40.794228 45.982652,40.317846 45.655384,39.908481 45.022677,39.117056 45.026701,39.12822 44.934902,37.909998 l -0.04246,-0.56346 0.550289,-0.169967 c 0.707269,-0.218453 1.152815,-0.220344 1.367355,-0.0058 0.442252,0.442252 0.776912,1.551345 0.785104,2.601903 0.0057,0.731424 -0.06229,0.962991 -0.387611,1.320167 -0.232363,0.255113 -0.311082,0.240085 -0.658578,-0.12573 z m -0.572687,-2.157399 -0.353605,-0.360298 0.260146,-0.192335 c 0.430037,-0.31794 0.254985,-0.46012 -0.246936,-0.200566 -0.376469,0.194679 -0.325638,0.44646 0.186924,0.925902 0.536552,0.501881 0.669119,0.352703 0.153471,-0.172703 z"
       id="path18780" /><path
       style="fill:#faf6f0;stroke-width:0.0419101;paint-order:stroke markers fill;fill-opacity:1"
       d="m 32.544875,18.988109 c -0.461527,-0.363037 -0.503467,-1.024514 -0.09568,-1.509137 0.18367,-0.218279 0.270617,-0.253928 0.619329,-0.253928 0.510347,0 0.669712,0.14657 0.667257,0.613684 -0.0025,0.484047 -0.263868,1.022438 -0.574151,1.182891 -0.323932,0.167512 -0.363958,0.165337 -0.616751,-0.03351 z"
       id="path18782" /><path
       style="fill:#faf6f0;stroke-width:0.0419101;paint-order:stroke markers fill;fill-opacity:1"
       d="m 33.770257,19.774465 c -0.03676,-0.146457 -0.01012,-0.260898 0.08222,-0.353242 0.12625,-0.12625 0.147102,-0.126093 0.275262,0.0021 0.129006,0.129006 0.128872,0.153611 -0.0019,0.353242 -0.178654,0.272661 -0.286758,0.272033 -0.355553,-0.0021 z"
       id="path18784" /><path
       style="fill:#faf6f0;stroke-width:0.0419101;paint-order:stroke markers fill;fill-opacity:1"
       d="m 49.047899,18.135957 c -0.235353,-0.136808 -0.405289,-0.609092 -0.309662,-0.860609 0.187978,-0.494422 0.847039,-0.602109 1.013028,-0.165524 0.110279,0.290055 -0.03906,0.825943 -0.276511,0.992263 -0.215132,0.150685 -0.224603,0.151436 -0.426855,0.03387 z"
       id="path18786" /><path
       style="fill:#faf6f0;stroke-width:0.0419101;paint-order:stroke markers fill;fill-opacity:1"
       d="m 49.875405,18.905339 c -0.07873,-0.127389 0.02351,-0.398917 0.171599,-0.455746 0.140609,-0.05396 0.232429,0.11238 0.188358,0.341221 -0.033,0.171365 -0.276875,0.248956 -0.359957,0.114525 z"
       id="path18788" /></g></svg>
