<?xml version="1.0" encoding="UTF-8" standalone="no"?>
<svg
   width="16"
   height="16"
   fill="currentColor"
   class="bi bi-apple"
   viewBox="0 0 16 16"
   version="1.1"
   id="svg6"
   sodipodi:docname="unchecked.svg"
   inkscape:version="1.2.2 (732a01da63, 2022-12-09)"
   xmlns:inkscape="http://www.inkscape.org/namespaces/inkscape"
   xmlns:sodipodi="http://sodipodi.sourceforge.net/DTD/sodipodi-0.dtd"
   xmlns="http://www.w3.org/2000/svg"
   xmlns:svg="http://www.w3.org/2000/svg">
  <defs
     id="defs10" />
  <sodipodi:namedview
     id="namedview8"
     pagecolor="#505050"
     bordercolor="#eeeeee"
     borderopacity="1"
     inkscape:showpageshadow="0"
     inkscape:pageopacity="0"
     inkscape:pagecheckerboard="0"
     inkscape:deskcolor="#505050"
     showgrid="false"
     inkscape:zoom="32"
     inkscape:cx="3.578125"
     inkscape:cy="6.9375"
     inkscape:window-width="1920"
     inkscape:window-height="1017"
     inkscape:window-x="-8"
     inkscape:window-y="-8"
     inkscape:window-maximized="1"
     inkscape:current-layer="svg6" />
  <path
     id="path2"
     d="M 10.611328,0.30078125 C 10.095381,0.29858032 9.5236705,0.45656394 8.8574219,1.1796875 7.8139498,2.3112576 8.2214215,4.0715162 8.2617188,4.1777344 8.2373231,4.083815 8.231815,3.5710564 10.453125,2.4375 11.922426,1.6877017 9.4960015,1.5001126 11.488281,0.390625 11.2103,0.36203814 10.920897,0.30210181 10.611328,0.30078125 Z m 0.273438,3.55078125 c -0.203625,0.003 -0.489502,0.033172 -0.875,0.1386719 C 9.5017662,4.129234 8.5474213,4.6362969 8.2324219,4.6542969 7.9164225,4.6722969 6.7863886,4.0746404 5.7753906,3.9316406 5.128392,3.8066409 4.4421709,4.062766 3.9511719,4.2597656 c -0.489999,0.1959996 -1.42222,0.753331 -2.0742188,2.2363282 -0.6519986,1.481997 -0.3104058,3.8305472 -0.066406,4.5605472 0.2439994,0.729998 0.6234857,1.924875 1.2714843,2.796875 0.575999,0.983998 1.3411569,1.666437 1.6601563,1.898437 0.3189994,0.232 1.2197512,0.385402 1.84375,0.06641 0.501999,-0.307998 1.3119225,-0.657531 1.6699219,-0.644531 0.3569992,0.013 1.155955,0.327891 1.8769524,0.712891 0.571,0.197 1.111346,0.114531 1.652344,-0.105469 0.541,-0.221 1.324282,-1.058816 2.238282,-2.757812 0.346665,-0.79 0.652426,-1.449005 0.621093,-1.513672 -1.124715,-1.202544 -1.471726,-1.407174 -1.841797,-3.4863285 -0.909195,-0.4057933 -1.942604,-0.9389777 -1.945312,-2.078125 0.0014,-0.7756613 0.282219,-1.5146466 0.773437,-2.0351563 -0.121107,-0.018222 -0.244344,-0.030981 -0.367187,-0.037109 -0.054,-0.0015 -0.175283,-0.024484 -0.378906,-0.021484 z M 10.539062,7.71875 c 0.293312,0.2942267 0.295376,0.2942084 0.501954,0.53125 l -2.8085941,3.529297 c -0.2713491,0.0048 -0.2603048,0.0091 -0.5058594,0.0098 L 6.0175781,9.9492188 C 6.3933943,9.5230087 6.399793,9.5178032 6.515625,9.4121094 L 7.9648438,10.974609 10.529297,7.7304688 Z"
     style="fill:#faf6f0;fill-opacity:1"
     sodipodi:nodetypes="sccscsccccccscsccccccccccscccccccccc" />
</svg>
