<?xml version="1.0" encoding="UTF-8" standalone="no"?>
<svg
   width="16"
   height="16"
   fill="currentColor"
   class="bi bi-apple"
   viewBox="0 0 16 16"
   version="1.1"
   id="svg6"
   sodipodi:docname="uncheck.svg"
   inkscape:version="1.2.2 (732a01da63, 2022-12-09)"
   inkscape:export-filename="unchecked.png"
   inkscape:export-xdpi="96"
   inkscape:export-ydpi="96"
   xmlns:inkscape="http://www.inkscape.org/namespaces/inkscape"
   xmlns:sodipodi="http://sodipodi.sourceforge.net/DTD/sodipodi-0.dtd"
   xmlns:xlink="http://www.w3.org/1999/xlink"
   xmlns="http://www.w3.org/2000/svg"
   xmlns:svg="http://www.w3.org/2000/svg">
  <defs
     id="defs10">
    <linearGradient
       inkscape:collect="always"
       id="linearGradient2038">
      <stop
         style="stop-color:#c9b06b;stop-opacity:1;"
         offset="0"
         id="stop2034" />
      <stop
         style="stop-color:#1e753a;stop-opacity:1;"
         offset="1"
         id="stop2036" />
    </linearGradient>
    <radialGradient
       inkscape:collect="always"
       xlink:href="#linearGradient2038"
       id="radialGradient2054"
       cx="8.3179579"
       cy="8.1528187"
       fx="8.3179579"
       fy="8.1528187"
       r="6.8176937"
       gradientTransform="matrix(1,0,0,1.1508585,0,-1.2299222)"
       gradientUnits="userSpaceOnUse"
       spreadMethod="reflect" />
  </defs>
  <sodipodi:namedview
     id="namedview8"
     pagecolor="#505050"
     bordercolor="#eeeeee"
     borderopacity="1"
     inkscape:showpageshadow="0"
     inkscape:pageopacity="0"
     inkscape:pagecheckerboard="0"
     inkscape:deskcolor="#505050"
     showgrid="false"
     inkscape:zoom="32"
     inkscape:cx="-0.234375"
     inkscape:cy="6.9375"
     inkscape:window-width="1920"
     inkscape:window-height="1017"
     inkscape:window-x="-8"
     inkscape:window-y="-8"
     inkscape:window-maximized="1"
     inkscape:current-layer="svg6" />
  <g
     id="g704"
     style="fill:url(#radialGradient2054);fill-opacity:1;fill-rule:nonzero">
    <path
       id="path2"
       style="fill:url(#radialGradient2054);fill-opacity:1;fill-rule:nonzero"
       d="M 6.1972656 0.30664062 C 5.893585 0.30795869 5.6105843 0.36795439 5.3378906 0.39648438 C 7.2922744 1.503758 4.9121631 1.6911514 6.3535156 2.4394531 C 8.5325731 3.5707476 8.5258849 4.0820493 8.5019531 4.1757812 C 8.5414841 4.0697755 8.9415922 2.3129054 7.9179688 1.1835938 C 7.2643929 0.46191301 6.7033986 0.30444405 6.1972656 0.30664062 z M 5.9296875 3.8496094 C 5.7299377 3.8466194 5.6115663 3.8695938 5.5585938 3.8710938 C 5.4380873 3.8772137 5.3160691 3.8900171 5.1972656 3.9082031 C 5.198222 3.9092341 5.198264 3.9110767 5.1992188 3.9121094 C 4.7411769 3.9555127 4.2973086 4.120888 3.9511719 4.2597656 C 3.4611749 4.4557644 2.5289495 5.0131022 1.8769531 6.4960938 C 1.2249573 7.9780848 1.5665479 10.326641 1.8105469 11.056641 C 2.0545451 11.786635 2.4340354 12.981516 3.0820312 13.853516 C 3.6580282 14.83751 4.4231893 15.519953 4.7421875 15.751953 C 4.9867809 15.92984 5.5736026 16.060796 6.1152344 15.96875 C 6.2970712 15.960135 6.4805771 15.927102 6.6679688 15.861328 C 7.2627073 15.538238 7.9073138 15.266179 8.3066406 15.179688 C 8.6829521 15.215564 9.4414391 15.517536 10.132812 15.886719 C 10.478155 16.005865 10.812735 16.020702 11.142578 15.966797 C 11.486867 15.941494 11.795649 15.844529 11.955078 15.726562 C 12.022991 15.676315 12.114004 15.60083 12.216797 15.509766 C 12.222631 15.504597 12.22845 15.501389 12.234375 15.496094 C 12.243149 15.4888 12.252868 15.478241 12.261719 15.470703 C 12.365172 15.382591 12.474431 15.272823 12.587891 15.150391 C 12.907459 14.817043 13.273025 14.37247 13.583984 13.832031 C 14.21966 12.961772 14.592672 11.769556 14.832031 11.041016 C 15.071385 10.312478 15.405229 7.969274 14.765625 6.4902344 C 14.126039 5.0102035 13.211145 4.4534209 12.730469 4.2578125 C 12.41909 4.1307125 12.028318 3.9817359 11.619141 3.9238281 C 11.623224 3.9194397 11.626747 3.9145142 11.630859 3.9101562 C 11.509752 3.8919343 11.386515 3.8791749 11.263672 3.8730469 C 11.209672 3.8715469 11.088385 3.8485625 10.884766 3.8515625 C 10.681141 3.8545625 10.39526 3.8847346 10.009766 3.9902344 C 9.5683453 4.111016 8.7918039 4.5107597 8.3886719 4.625 C 8.3881529 4.6248534 8.387239 4.6251476 8.3867188 4.625 C 7.9931082 4.5133302 7.2225786 4.1095031 6.7871094 3.9882812 C 6.4089442 3.8829923 6.1294393 3.8525994 5.9296875 3.8496094 z M 10.539062 7.71875 C 10.832374 8.0129755 10.834438 8.0129592 11.041016 8.25 L 8.2324219 11.779297 C 7.9610736 11.784097 7.9721163 11.788363 7.7265625 11.789062 L 6.0175781 9.9492188 C 6.3933927 9.5230103 6.3997934 9.5178028 6.515625 9.4121094 L 7.9648438 10.974609 L 10.529297 7.7304688 L 10.539062 7.71875 z " />
  </g>
</svg>
